<mxfile host="Electron" agent="Mozilla/5.0 (Windows NT 10.0; Win64; x64) AppleWebKit/537.36 (KHTML, like Gecko) draw.io/26.0.9 Chrome/128.0.6613.186 Electron/32.2.5 Safari/537.36" version="26.0.9">
  <diagram name="Page-1" id="MeJGxe54uRQBHsdm0BK0">
    <mxGraphModel dx="1750" dy="1035" grid="1" gridSize="10" guides="1" tooltips="1" connect="1" arrows="1" fold="1" page="1" pageScale="1" pageWidth="850" pageHeight="1100" math="1" shadow="0">
      <root>
        <mxCell id="0" />
        <mxCell id="1" parent="0" />
        <mxCell id="DvLTwoatMuHRshKrIxOl-116" style="edgeStyle=orthogonalEdgeStyle;rounded=1;orthogonalLoop=1;jettySize=auto;html=1;exitX=0.5;exitY=0;exitDx=0;exitDy=0;entryX=0.318;entryY=0.005;entryDx=0;entryDy=0;endArrow=none;startFill=0;curved=0;fillColor=#f5f5f5;strokeColor=#666666;dashed=1;dashPattern=1 1;entryPerimeter=0;" parent="1" source="DvLTwoatMuHRshKrIxOl-50" target="DvLTwoatMuHRshKrIxOl-64" edge="1">
          <mxGeometry relative="1" as="geometry">
            <Array as="points">
              <mxPoint x="932" y="360" />
              <mxPoint x="1020" y="360" />
            </Array>
          </mxGeometry>
        </mxCell>
        <mxCell id="DvLTwoatMuHRshKrIxOl-115" style="edgeStyle=orthogonalEdgeStyle;rounded=1;orthogonalLoop=1;jettySize=auto;html=1;exitX=0.487;exitY=0.001;exitDx=0;exitDy=0;curved=0;endArrow=none;startFill=0;fillColor=#f5f5f5;strokeColor=#666666;dashed=1;dashPattern=1 1;exitPerimeter=0;" parent="1" source="DvLTwoatMuHRshKrIxOl-17" edge="1">
          <mxGeometry relative="1" as="geometry">
            <Array as="points">
              <mxPoint x="833" y="360" />
              <mxPoint x="920" y="360" />
              <mxPoint x="920" y="410" />
            </Array>
            <mxPoint x="920" y="410" as="targetPoint" />
          </mxGeometry>
        </mxCell>
        <mxCell id="DvLTwoatMuHRshKrIxOl-50" value="" style="whiteSpace=wrap;html=1;aspect=fixed;fillColor=#fff2cc;strokeColor=#d6b656;shadow=1;opacity=80;" parent="1" vertex="1">
          <mxGeometry x="903" y="410.26" width="58" height="58" as="geometry" />
        </mxCell>
        <mxCell id="DvLTwoatMuHRshKrIxOl-94" value="" style="whiteSpace=wrap;html=1;aspect=fixed;fillColor=#fff2cc;strokeColor=#d6b656;shadow=1;opacity=80;" parent="1" vertex="1">
          <mxGeometry x="907.5" y="414.51" width="58" height="58" as="geometry" />
        </mxCell>
        <mxCell id="Rx0N3biQeZJ-gyF1oq_y-106" value="" style="whiteSpace=wrap;html=1;aspect=fixed;fillColor=#fff2cc;strokeColor=#d6b656;shadow=1;opacity=80;" parent="1" vertex="1">
          <mxGeometry x="913" y="419.24" width="58" height="58" as="geometry" />
        </mxCell>
        <mxCell id="Rx0N3biQeZJ-gyF1oq_y-66" style="edgeStyle=orthogonalEdgeStyle;rounded=0;orthogonalLoop=1;jettySize=auto;html=1;entryX=1;entryY=0.5;entryDx=0;entryDy=0;endArrow=none;startFill=0;fillColor=#f5f5f5;strokeColor=#666666;strokeWidth=2;" parent="1" source="Rx0N3biQeZJ-gyF1oq_y-62" target="Rx0N3biQeZJ-gyF1oq_y-56" edge="1">
          <mxGeometry relative="1" as="geometry" />
        </mxCell>
        <mxCell id="Rx0N3biQeZJ-gyF1oq_y-58" value="" style="rounded=1;whiteSpace=wrap;html=1;arcSize=50;fillColor=#f5f5f5;fontColor=#333333;strokeColor=#666666;opacity=50;" parent="1" vertex="1">
          <mxGeometry x="1270" y="380" width="30" height="100" as="geometry" />
        </mxCell>
        <mxCell id="Rx0N3biQeZJ-gyF1oq_y-56" value="" style="rounded=1;whiteSpace=wrap;html=1;arcSize=8;fillColor=#f5f5f5;fontColor=#333333;strokeColor=#868686;fillStyle=cross-hatch;" parent="1" vertex="1">
          <mxGeometry x="1315.38" y="359.51" width="140" height="140" as="geometry" />
        </mxCell>
        <mxCell id="Rx0N3biQeZJ-gyF1oq_y-37" value="" style="endArrow=none;html=1;rounded=0;fillColor=#f5f5f5;strokeColor=#666666;strokeWidth=2;entryX=1;entryY=0.5;entryDx=0;entryDy=0;exitX=1;exitY=0.5;exitDx=0;exitDy=0;" parent="1" source="Rx0N3biQeZJ-gyF1oq_y-40" target="Rx0N3biQeZJ-gyF1oq_y-15" edge="1">
          <mxGeometry width="50" height="50" relative="1" as="geometry">
            <mxPoint x="1286" y="463.83" as="sourcePoint" />
            <mxPoint x="1446.7692307692307" y="463.83" as="targetPoint" />
          </mxGeometry>
        </mxCell>
        <mxCell id="Rx0N3biQeZJ-gyF1oq_y-35" value="" style="endArrow=none;html=1;rounded=0;fillColor=#f5f5f5;strokeColor=#666666;strokeWidth=2;entryX=1;entryY=0.5;entryDx=0;entryDy=0;exitX=1;exitY=0.5;exitDx=0;exitDy=0;" parent="1" source="Rx0N3biQeZJ-gyF1oq_y-39" target="Rx0N3biQeZJ-gyF1oq_y-3" edge="1">
          <mxGeometry width="50" height="50" relative="1" as="geometry">
            <mxPoint x="1286" y="430.09999999999997" as="sourcePoint" />
            <mxPoint x="1446.7692307692307" y="430.09999999999997" as="targetPoint" />
          </mxGeometry>
        </mxCell>
        <mxCell id="Rx0N3biQeZJ-gyF1oq_y-34" value="" style="endArrow=none;html=1;rounded=0;fillColor=#f5f5f5;strokeColor=#666666;strokeWidth=2;entryX=0.907;entryY=0.487;entryDx=0;entryDy=0;entryPerimeter=0;exitX=1;exitY=0.5;exitDx=0;exitDy=0;shadow=1;" parent="1" source="Rx0N3biQeZJ-gyF1oq_y-38" target="Rx0N3biQeZJ-gyF1oq_y-9" edge="1">
          <mxGeometry width="50" height="50" relative="1" as="geometry">
            <mxPoint x="1286" y="395.29999999999995" as="sourcePoint" />
            <mxPoint x="1446.7692307692307" y="395.29999999999995" as="targetPoint" />
          </mxGeometry>
        </mxCell>
        <mxCell id="DvLTwoatMuHRshKrIxOl-112" style="edgeStyle=orthogonalEdgeStyle;rounded=1;orthogonalLoop=1;jettySize=auto;html=1;exitX=0.851;exitY=0.012;exitDx=0;exitDy=0;entryX=0.29;entryY=-0.004;entryDx=0;entryDy=0;endArrow=none;startFill=0;fillColor=#f5f5f5;strokeColor=#666666;shadow=0;curved=0;dashed=1;dashPattern=1 1;exitPerimeter=0;entryPerimeter=0;" parent="1" source="DvLTwoatMuHRshKrIxOl-169" target="DvLTwoatMuHRshKrIxOl-4" edge="1">
          <mxGeometry relative="1" as="geometry">
            <mxPoint x="550.8700000000001" y="380.26" as="sourcePoint" />
            <Array as="points">
              <mxPoint x="580" y="360" />
              <mxPoint x="671" y="360" />
            </Array>
          </mxGeometry>
        </mxCell>
        <mxCell id="DvLTwoatMuHRshKrIxOl-169" value="" style="shape=image;verticalLabelPosition=bottom;labelBackgroundColor=default;verticalAlign=top;aspect=fixed;imageAspect=0;image=data:image/jpeg,/9j/4AAQSkZJRgABAQEAYABgAAD/2wBDAAMCAgMCAgMDAwMEAwMEBQgFBQQEBQoHBwYIDAoMDAsKCwsNDhIQDQ4RDgsLEBYQERMUFRUVDA8XGBYUGBIUFRT/2wBDAQMEBAUEBQkFBQkUDQsNFBQUFBQUFBQUFBQUFBQUFBQUFBQUFBQUFBQUFBQUFBQUFBQUFBQUFBQUFBQUFBQUFBT/wAARCACAAIADASIAAhEBAxEB/8QAHwAAAQUBAQEBAQEAAAAAAAAAAAECAwQFBgcICQoL/8QAtRAAAgEDAwIEAwUFBAQAAAF9AQIDAAQRBRIhMUEGE1FhByJxFDKBkaEII0KxwRVS0fAkM2JyggkKFhcYGRolJicoKSo0NTY3ODk6Q0RFRkdISUpTVFVWV1hZWmNkZWZnaGlqc3R1dnd4eXqDhIWGh4iJipKTlJWWl5iZmqKjpKWmp6ipqrKztLW2t7i5usLDxMXGx8jJytLT1NXW19jZ2uHi4+Tl5ufo6erx8vP09fb3+Pn6/8QAHwEAAwEBAQEBAQEBAQAAAAAAAAECAwQFBgcICQoL/8QAtREAAgECBAQDBAcFBAQAAQJ3AAECAxEEBSExBhJBUQdhcRMiMoEIFEKRobHBCSMzUvAVYnLRChYkNOEl8RcYGRomJygpKjU2Nzg5OkNERUZHSElKU1RVVldYWVpjZGVmZ2hpanN0dXZ3eHl6goOEhYaHiImKkpOUlZaXmJmaoqOkpaanqKmqsrO0tba3uLm6wsPExcbHyMnK0tPU1dbX2Nna4uPk5ebn6Onq8vP09fb3+Pn6/9oADAMBAAIRAxEAPwD8qqKKKACiiigAooooAKKKKACiiigAooooAKKKKACiiigAooooAKKKKACirNrY3F8zra28tyUQyMIkLlVHUnA4A7npW3pPw78Ta3fWlpaaJeGe7jMtv50ZiWVBjLKz4BHI5zjmgDm6K7bxF8H/ABV4cu72C40x5RZxedNLAdyKmSM4OCMEEYIzwTjHNcuug6m3l40+6Ik+5iBvm+nHNAFGirmoaPfaSyLfWVxZFxlRcRMhbHcZAz1H51ToAKKKKACiiigAooooAKKKKACvoPS/gT4e0f4Up4t1iW7vLu4tg8cAcRxK7qpUAD5iyllBycH5uOKk/Zr+COm+MtL1XxHr8YuLaCCX7JatyshUAM5GegLbR6YYgEgEe1eBfCei+LvhPZeDp/ECR3mqSCWyRgHS3KsxMLHkjI4PB+5zgHIAG2+gDTPhr4G8OLpq6Zb6o4iuwI2VmhUktnAySxHzdCdx7kmvcNP8EQGayvfsKs9hCywRgbWJK4KnBwRjac8ckcjHPnNjrPjL4S6taWmuLH4s8NHKRXNvDvKOMgsAMkEAduQeoHfWtdQ8dePNNt/Eunxt9htbtZF0uziJlkgOQ27JzuC7W28kHg5wcAEdn4Dt9a0HWbjxHNLZyeIJRbhSCPJJxtBBHIO3OAR1bt1vL8CtF0/ULAC7MNzHGzJFGgLFVAy65zjI6AZ+8PU11K3njjxhdW80HgUJBBKJIzqjeSFGD86gtycE4DAfgcGtiLTfHXnLd3/h7SL2WIfJ9nvNk8YJzgbsLg4GR3x14GQDzD4qfBjSvGvg/UbPTbKHUb+2DQrGFDMsm3aGwo3AqWGD1A474r5o+I37HOp+GNOe7066YmCAz3CXQHlgYJIVhkjABwGznI5719Y6jN4o+F9xc6rDo8mq6HfsZbuHO+5gOWy3ynBA5+YdhgckVr+HfFnh7xBpbz/2w1zYybhLpeqNiVMDkK3BLA9ASe4xnigD8tNU0HUdFEJv7G4s1nXfE00TKJBgHKkjBxkZx0zWdX6R/HD4X+G/F/gOE2mizXbXg8uxitZQ/kPyFbcDgMPmye+ADkZB/P7xx4J1P4f68+k6rGsdyFEg2nOVJIzjqCCpBB7g9RgkA52iiigAooooAK674X/D+9+JvjC00OyALSBpJDvCkIvJAJB5JIAwDgsCRgGuRr6d/Y3jkhbVp9HtGvPEck8ccUcqkwpGB97IBIbLN654wByaAPc7HxLN+zrDp2kajFHL4TubRVSVkDXFqdoxE5Ayw4P/AHzg8nI6nQbTTPiJ4T1K+FifCU1jcrPaava2pVZASCDtOSDzjoDgtgDqOs8TeAbTWNYsvEGsiO9ktrMW0dox3BrliAWx90jDEZ6Yye2R59N49n+FK29nearBrfgqW4uLJIfs7bosMw8pnOSeAwO0DBUHnrQB0vwltb3Ur+Y6toy6loc94dQTVhvQQOi4ZypO0BiD0JBAHTHHqPjb4geGvg74Dn167tU03TC4e3tLOFTLcyNnGFJABIyQM8Dk9hXL+CfE3hm88L6Olsf7G0eTUlWW1ncNsUKPlBOMJuVMnGAC3XBry79vDwXrPjXVfCklnfW7aescsJiurmKFROSrbgrMC5YYUKMsdpwDzQBxPjP/AIKA6/qDNF4e8P2dhtOA+oytcuOvKqpRR2OOefXPPCWf7Z/xWt7tbpdYtbiNjxE+nxLHjncOFDc4z97Jya6Xwv8Asv2Oo6Zu1C/xqJXhICxiL4UN8xYEHPH49DjB+ffFvhG88E+JL3SNTTyry2blhnYykAqy56qwxjI7n0IoA+tvhf8At8JfanHZeOtDjt7ST5TqmlsfkODy8RJJB5ztPGeh6V6b8Ufgr4e8e6LdeIPCflm8v4RPa3lpJm3c4yHjwCVYgKcjGcEHvj86oYZJJYhEhuJn2pHFCCxLEnAAAyeQRge3Wv0e/ZT0XVvCPwBFl4p32hNxLcQ29wRutoCVypBxjlXbb1Gc8cigDjfhB471RdN1OO7W7vf7HYWsem6bEAr4O0sW5ByTk8kjdgnNeS/tGeB9G8WeDtY1SC1sdP1vT1N40NvL5roiglizA4O7BBwcAgcZBrqfD0s+k+H/AIja1aefBbFjbW9va7gh3EMHUkjJYg57ZJHbNcz46msvA/wdN5aeHl1eTUtPYXl9Di4RZiDnzMn7uNhOckAsenIAPimiiigAooooAK+r/wBj/wAUW0Fm0Ntbmxv9OnH2m6iI/fxyiTazcj7pUA+gC4OTivlCuv8Ahr8SNQ+GfiAalZQw3SOAk1tcDKOoYHI7BhjhiDjJ4IJBAPvPwvdeLpNDia+vGSzeKa4WeJFe4Qb9sIJckFmUnHAwOuRnOG3i7wz/AGLrXl6TBBqkM/8Ao5vcz72k5aV2BKBmJYZPPLDg1xV98UNZ8dWzS/2WfDX9sWyx3EbMTsIIG4AAtuwTgEL8uSSACBYsfCMMOi2ypZRR3FrdxsUVW8oHzCflUkHOwYLMRkE5JyKAKPizVtbm0HUn0WyksNNS3+1IuoFQxTdtZUU4YAY43gE4wBwK0vhT4f8AEHxs0Gw1HxR4j1BtF0y7VdMtWGUndSN53uCWX5VUryRyAQMA974i8Mq2jyQztHZWDRMbx2ZY1BLMwQsw4GWwfYkdTitr4X6NpHhzwrbWmk3JvbNQ12lw8hVCrMGZlP8AdzwOBnbnnJwAddceCxpts8818sSqrsuE2oMIdoyWPygkdAOB19fJPiVqfgPSYbe18U3ujXGpXUQYLLMrSQqZPkyN3IwGGTwPmru/jBrj6f8AB/xlLbyrDd/2bK6tP+82gICYxgDBYFhnOQTkV+X7O0jFmJZickk5JoA/QrwnHpnhS7tLvw54et9XvmIijukKR7Mn7pBGcZ25IPP511ut3fiTxVbPHrpnEcuZF0TRlO4qf+e0xGAO4GSQccAV+e/gH4pa98PtUs7mxvbh7OBvmsWmIjKkgsFHIRieQwGQfUZB9e1L9s3VNQ002Ufh6C0h3fehuiJCvAwW2ckDOCRgE5x2oA+hr/QjJc2kfiHUdD8N6JAnlW+hG9ZgzsxH73YC2dpGeeB1zxjh/wBpnz/DPwsuZ4/Ekbi+CwwWNiI1tmjdgGCqeSxQSEkDP3iT1r5r1b45a3NLcjT447KGUja1xi4mThc/MVCnJB525weSSAa5DxJ4u1jxhdJcaxfyXsiKEjVsKkahQuFQAKowoztAyRk5PNAGLRRRQAUUUUAFXtH1KXRNWstRhWN5rSaOeNZASpZWDDIBGRkdMiqNFAHtQ/aMuNSa1iv9Kt4VCKk11H+8fgD7oI+UZGMAkgHjJHPumhfEuWx8O2t2JbOT7UFdII7bMMYwXBLABnKrtAJYDJGe4r4hrb0PxZqegyQiC8n+zRtk2wlIQrnJGOQMnnp1weaAPcvixqfiDxlNYy3OrNNbXLt5Omh9sVvkhVUAHaT8wOWycEjPFfTPg2O28P6Ho2miRVW3so7USSAAyKgA+UcYDDJGMdfc18WeFfGsPivxxpUOomWBLi9t4kLSb1VSduDwOpI56D2xk/RXxe8cL4D8E6hfxTMuoyx/ZbHGQFlk3DcpwcFVVn5wCUAJyRQBzv7XPxcto/DbeCbK4M1/dyxy38TYYwQod6IxHRixVgOoC5IG4E/IlSTTPcSPJI7SSOSzMxJJJOSSfU1HQAUUUUAFFFFABRRRQAUUUUAFFFFABRRRQBLb3ElvNHNFI0U0bbkkRiGVgcggjkEHmuq+IXxO1b4lXNnNqkdrCtojJFFaxlFyxyzEliSThe+OBgDnPIUUAFFFFABRRRQAUUUUAFFFFABRRRQAUUUUAFFFFABRRRQAUUUUAFFFFABRRRQAUUUUAFFFFAH/2Q==;" parent="1" vertex="1">
          <mxGeometry x="471" y="380" width="128" height="128" as="geometry" />
        </mxCell>
        <mxCell id="DvLTwoatMuHRshKrIxOl-114" style="edgeStyle=orthogonalEdgeStyle;rounded=1;orthogonalLoop=1;jettySize=auto;html=1;exitX=0.713;exitY=0.003;exitDx=0;exitDy=0;entryX=0.25;entryY=0;entryDx=0;entryDy=0;endArrow=none;startFill=0;curved=0;fillColor=#f5f5f5;strokeColor=#666666;dashed=1;dashPattern=1 1;exitPerimeter=0;" parent="1" source="DvLTwoatMuHRshKrIxOl-4" target="DvLTwoatMuHRshKrIxOl-17" edge="1">
          <mxGeometry relative="1" as="geometry" />
        </mxCell>
        <mxCell id="DvLTwoatMuHRshKrIxOl-4" value="" style="whiteSpace=wrap;html=1;aspect=fixed;strokeColor=#d6b656;strokeWidth=1;fillColor=#fff2cc;shadow=1;opacity=80;" parent="1" vertex="1">
          <mxGeometry x="635" y="380" width="124" height="124" as="geometry" />
        </mxCell>
        <mxCell id="DvLTwoatMuHRshKrIxOl-17" value="" style="whiteSpace=wrap;html=1;aspect=fixed;fillColor=#dae8fc;strokeColor=#6c8ebf;shadow=1;opacity=80;" parent="1" vertex="1">
          <mxGeometry x="803" y="415" width="62" height="62" as="geometry" />
        </mxCell>
        <mxCell id="DvLTwoatMuHRshKrIxOl-22" value="" style="whiteSpace=wrap;html=1;aspect=fixed;strokeColor=#d6b656;strokeWidth=1;fillColor=#fff2cc;shadow=1;opacity=80;" parent="1" vertex="1">
          <mxGeometry x="640" y="384" width="124" height="124" as="geometry" />
        </mxCell>
        <mxCell id="DvLTwoatMuHRshKrIxOl-23" value="" style="whiteSpace=wrap;html=1;aspect=fixed;fillColor=#dae8fc;strokeColor=#6c8ebf;shadow=1;opacity=80;" parent="1" vertex="1">
          <mxGeometry x="807" y="419" width="62" height="62" as="geometry" />
        </mxCell>
        <mxCell id="DvLTwoatMuHRshKrIxOl-170" style="edgeStyle=orthogonalEdgeStyle;rounded=1;orthogonalLoop=1;jettySize=auto;html=1;exitX=0.75;exitY=0;exitDx=0;exitDy=0;entryX=0.648;entryY=0.017;entryDx=0;entryDy=0;endArrow=none;startFill=0;curved=0;dashed=1;dashPattern=1 1;fillColor=#f5f5f5;strokeColor=#666666;entryPerimeter=0;" parent="1" source="DvLTwoatMuHRshKrIxOl-64" target="DvLTwoatMuHRshKrIxOl-150" edge="1">
          <mxGeometry relative="1" as="geometry">
            <Array as="points">
              <mxPoint x="1033" y="360" />
              <mxPoint x="1100" y="360" />
              <mxPoint x="1100" y="436" />
            </Array>
          </mxGeometry>
        </mxCell>
        <mxCell id="DvLTwoatMuHRshKrIxOl-64" value="" style="whiteSpace=wrap;html=1;aspect=fixed;fillColor=#dae8fc;strokeColor=#6c8ebf;shadow=1;opacity=80;" parent="1" vertex="1">
          <mxGeometry x="1011" y="436" width="29" height="29" as="geometry" />
        </mxCell>
        <mxCell id="DvLTwoatMuHRshKrIxOl-65" value="" style="whiteSpace=wrap;html=1;aspect=fixed;fillColor=#dae8fc;strokeColor=#6c8ebf;shadow=1;opacity=80;" parent="1" vertex="1">
          <mxGeometry x="1015" y="440" width="29" height="29" as="geometry" />
        </mxCell>
        <mxCell id="DvLTwoatMuHRshKrIxOl-82" value="" style="whiteSpace=wrap;html=1;aspect=fixed;fillColor=#dae8fc;strokeColor=#6c8ebf;shadow=1;opacity=80;" parent="1" vertex="1">
          <mxGeometry x="1019" y="444" width="29" height="29" as="geometry" />
        </mxCell>
        <mxCell id="DvLTwoatMuHRshKrIxOl-83" value="" style="whiteSpace=wrap;html=1;aspect=fixed;fillColor=#dae8fc;strokeColor=#6c8ebf;shadow=1;opacity=80;" parent="1" vertex="1">
          <mxGeometry x="1023" y="448" width="29" height="29" as="geometry" />
        </mxCell>
        <mxCell id="DvLTwoatMuHRshKrIxOl-95" value="" style="whiteSpace=wrap;html=1;aspect=fixed;fillColor=#fff2cc;strokeColor=#d6b656;shadow=1;opacity=80;" parent="1" vertex="1">
          <mxGeometry x="919" y="424" width="58" height="58" as="geometry" />
        </mxCell>
        <mxCell id="DvLTwoatMuHRshKrIxOl-106" value="&lt;b&gt;&lt;font&gt;2x124x124&lt;/font&gt;&lt;/b&gt;" style="text;html=1;align=center;verticalAlign=middle;whiteSpace=wrap;rounded=1;strokeColor=none;fillColor=none;fontColor=#404040;dashed=1;dashPattern=1 1;fontSize=10;" parent="1" vertex="1">
          <mxGeometry x="640" y="515.5" width="124" height="20" as="geometry" />
        </mxCell>
        <mxCell id="DvLTwoatMuHRshKrIxOl-107" value="&lt;b&gt;&lt;font&gt;1x128x128&lt;/font&gt;&lt;/b&gt;" style="text;html=1;align=center;verticalAlign=middle;whiteSpace=wrap;rounded=1;strokeColor=none;fillColor=none;fontColor=#404040;dashed=1;dashPattern=1 1;fontSize=10;" parent="1" vertex="1">
          <mxGeometry x="470" y="515.5" width="128" height="20" as="geometry" />
        </mxCell>
        <mxCell id="DvLTwoatMuHRshKrIxOl-108" value="&lt;b&gt;&lt;font&gt;2x62x62&lt;/font&gt;&lt;/b&gt;" style="text;html=1;align=center;verticalAlign=middle;whiteSpace=wrap;rounded=1;strokeColor=none;fillColor=none;fontColor=#404040;dashed=1;dashPattern=1 1;fontSize=10;" parent="1" vertex="1">
          <mxGeometry x="807" y="488" width="62" height="20" as="geometry" />
        </mxCell>
        <mxCell id="DvLTwoatMuHRshKrIxOl-109" value="&lt;b&gt;&lt;font&gt;4x58x58&lt;/font&gt;&lt;/b&gt;" style="text;html=1;align=center;verticalAlign=middle;whiteSpace=wrap;rounded=1;strokeColor=none;fillColor=none;fontColor=#404040;dashed=1;dashPattern=1 1;fontSize=10;" parent="1" vertex="1">
          <mxGeometry x="919" y="488" width="58" height="20" as="geometry" />
        </mxCell>
        <mxCell id="DvLTwoatMuHRshKrIxOl-110" value="&lt;b&gt;&lt;font&gt;4x29x29&lt;/font&gt;&lt;/b&gt;" style="text;html=1;align=center;verticalAlign=middle;whiteSpace=wrap;rounded=1;strokeColor=none;fillColor=none;fontColor=#404040;dashed=1;dashPattern=1 1;fontSize=10;" parent="1" vertex="1">
          <mxGeometry x="1008.5" y="481" width="58" height="20" as="geometry" />
        </mxCell>
        <mxCell id="DvLTwoatMuHRshKrIxOl-113" value="&lt;b&gt;&lt;font style=&quot;font-size: 10px; color: rgb(64, 64, 64);&quot;&gt;Conv. Filter = 5x5&lt;br&gt;Stride = 1&lt;/font&gt;&lt;/b&gt;&lt;div&gt;&lt;b&gt;&lt;font style=&quot;font-size: 10px; color: rgb(64, 64, 64);&quot;&gt;Padding = 0&lt;/font&gt;&lt;/b&gt;&lt;/div&gt;" style="text;html=1;align=center;verticalAlign=middle;whiteSpace=wrap;rounded=1;strokeColor=#666666;fillColor=default;fontColor=#333333;dashed=1;dashPattern=1 1;fontSize=12;fillStyle=dots;arcSize=11;" parent="1" vertex="1">
          <mxGeometry x="580" y="306" width="91" height="50" as="geometry" />
        </mxCell>
        <mxCell id="DvLTwoatMuHRshKrIxOl-117" value="&lt;b&gt;&lt;font style=&quot;font-size: 10px; color: rgb(64, 64, 64);&quot;&gt;Max-Pooling = 2x2&lt;/font&gt;&lt;/b&gt;" style="text;html=1;align=center;verticalAlign=middle;whiteSpace=wrap;rounded=1;strokeColor=#666666;fillColor=default;fontColor=#333333;dashed=1;dashPattern=1 1;fontSize=12;fillStyle=dots;arcSize=50;" parent="1" vertex="1">
          <mxGeometry x="723" y="336" width="97" height="20" as="geometry" />
        </mxCell>
        <mxCell id="DvLTwoatMuHRshKrIxOl-118" value="&lt;b&gt;&lt;font style=&quot;color: rgb(64, 64, 64); font-size: 9px;&quot;&gt;Max-Pooling = 2x2&lt;/font&gt;&lt;/b&gt;" style="text;html=1;align=center;verticalAlign=middle;whiteSpace=wrap;rounded=1;strokeColor=#666666;fillColor=default;fontColor=#333333;dashed=1;dashPattern=1 1;fontSize=12;fillStyle=dots;arcSize=50;" parent="1" vertex="1">
          <mxGeometry x="932" y="336" width="88" height="20" as="geometry" />
        </mxCell>
        <mxCell id="DvLTwoatMuHRshKrIxOl-121" value="&lt;b&gt;&lt;font style=&quot;font-size: 10px; color: rgb(64, 64, 64);&quot;&gt;Conv. Filter = 5x5&lt;br&gt;Stride = 1&lt;/font&gt;&lt;/b&gt;&lt;div&gt;&lt;b&gt;&lt;font style=&quot;font-size: 10px; color: rgb(64, 64, 64);&quot;&gt;Padding = 0&lt;/font&gt;&lt;/b&gt;&lt;/div&gt;" style="text;html=1;align=center;verticalAlign=middle;whiteSpace=wrap;rounded=1;strokeColor=#666666;fillColor=default;fontColor=#333333;dashed=1;dashPattern=1 1;fontSize=12;fillStyle=dots;arcSize=11;" parent="1" vertex="1">
          <mxGeometry x="833" y="306" width="87" height="50" as="geometry" />
        </mxCell>
        <mxCell id="DvLTwoatMuHRshKrIxOl-132" value="" style="whiteSpace=wrap;html=1;aspect=fixed;fillColor=none;strokeColor=#BFBFBF;dashed=1;dashPattern=1 1;" parent="1" vertex="1">
          <mxGeometry x="541" y="404" width="20" height="20" as="geometry" />
        </mxCell>
        <mxCell id="DvLTwoatMuHRshKrIxOl-134" value="" style="whiteSpace=wrap;html=1;aspect=fixed;fillColor=none;strokeColor=#888888;dashed=1;dashPattern=1 1;" parent="1" vertex="1">
          <mxGeometry x="843" y="443.5" width="20" height="20" as="geometry" />
        </mxCell>
        <mxCell id="DvLTwoatMuHRshKrIxOl-135" value="" style="ellipse;whiteSpace=wrap;html=1;aspect=fixed;fillColor=#888888;fontColor=#333333;strokeColor=none;" parent="1" vertex="1">
          <mxGeometry x="680" y="422" width="5" height="5" as="geometry" />
        </mxCell>
        <mxCell id="DvLTwoatMuHRshKrIxOl-136" value="" style="endArrow=none;html=1;rounded=0;exitX=1;exitY=0;exitDx=0;exitDy=0;entryX=0;entryY=0.5;entryDx=0;entryDy=0;startFill=0;fillColor=#f5f5f5;strokeColor=#BFBFBF;dashed=1;dashPattern=1 1;" parent="1" source="DvLTwoatMuHRshKrIxOl-132" target="DvLTwoatMuHRshKrIxOl-135" edge="1">
          <mxGeometry width="50" height="50" relative="1" as="geometry">
            <mxPoint x="580" y="460" as="sourcePoint" />
            <mxPoint x="630" y="410" as="targetPoint" />
          </mxGeometry>
        </mxCell>
        <mxCell id="DvLTwoatMuHRshKrIxOl-137" value="" style="endArrow=none;html=1;rounded=0;exitX=1;exitY=1;exitDx=0;exitDy=0;entryX=0;entryY=0.5;entryDx=0;entryDy=0;startFill=0;fillColor=#f5f5f5;strokeColor=#BFBFBF;dashed=1;dashPattern=1 1;" parent="1" source="DvLTwoatMuHRshKrIxOl-132" target="DvLTwoatMuHRshKrIxOl-135" edge="1">
          <mxGeometry width="50" height="50" relative="1" as="geometry">
            <mxPoint x="561" y="414" as="sourcePoint" />
            <mxPoint x="690" y="435" as="targetPoint" />
          </mxGeometry>
        </mxCell>
        <mxCell id="DvLTwoatMuHRshKrIxOl-138" value="" style="whiteSpace=wrap;html=1;aspect=fixed;fillColor=none;strokeColor=#888888;dashed=1;dashPattern=1 1;" parent="1" vertex="1">
          <mxGeometry x="707" y="466" width="16" height="16" as="geometry" />
        </mxCell>
        <mxCell id="DvLTwoatMuHRshKrIxOl-139" value="" style="ellipse;whiteSpace=wrap;html=1;aspect=fixed;fillColor=#888888;fontColor=#333333;strokeColor=none;" parent="1" vertex="1">
          <mxGeometry x="820" y="464.5" width="5" height="5" as="geometry" />
        </mxCell>
        <mxCell id="DvLTwoatMuHRshKrIxOl-141" value="" style="endArrow=none;html=1;rounded=0;exitX=1;exitY=0;exitDx=0;exitDy=0;entryX=0;entryY=0.5;entryDx=0;entryDy=0;startFill=0;fillColor=#f5f5f5;strokeColor=#888888;dashed=1;dashPattern=1 1;" parent="1" edge="1">
          <mxGeometry width="50" height="50" relative="1" as="geometry">
            <mxPoint x="723" y="466" as="sourcePoint" />
            <mxPoint x="827" y="467" as="targetPoint" />
          </mxGeometry>
        </mxCell>
        <mxCell id="DvLTwoatMuHRshKrIxOl-142" value="" style="endArrow=none;html=1;rounded=0;exitX=1;exitY=1;exitDx=0;exitDy=0;entryX=0;entryY=0.5;entryDx=0;entryDy=0;startFill=0;fillColor=#f5f5f5;strokeColor=#888888;dashed=1;dashPattern=1 1;" parent="1" source="DvLTwoatMuHRshKrIxOl-138" target="DvLTwoatMuHRshKrIxOl-139" edge="1">
          <mxGeometry width="50" height="50" relative="1" as="geometry">
            <mxPoint x="733" y="476" as="sourcePoint" />
            <mxPoint x="837" y="477" as="targetPoint" />
          </mxGeometry>
        </mxCell>
        <mxCell id="DvLTwoatMuHRshKrIxOl-143" value="" style="whiteSpace=wrap;html=1;aspect=fixed;fillColor=none;strokeColor=#888888;dashed=1;dashPattern=1 1;" parent="1" vertex="1">
          <mxGeometry x="952" y="454" width="16" height="16" as="geometry" />
        </mxCell>
        <mxCell id="DvLTwoatMuHRshKrIxOl-144" value="" style="ellipse;whiteSpace=wrap;html=1;aspect=fixed;fillColor=#888888;fontColor=#333333;strokeColor=none;" parent="1" vertex="1">
          <mxGeometry x="1035" y="467" width="5" height="5" as="geometry" />
        </mxCell>
        <mxCell id="DvLTwoatMuHRshKrIxOl-145" value="" style="ellipse;whiteSpace=wrap;html=1;aspect=fixed;fillColor=#888888;fontColor=#333333;strokeColor=none;" parent="1" vertex="1">
          <mxGeometry x="960.5" y="445.26" width="5" height="5" as="geometry" />
        </mxCell>
        <mxCell id="DvLTwoatMuHRshKrIxOl-146" value="" style="endArrow=none;html=1;rounded=0;exitX=1;exitY=0;exitDx=0;exitDy=0;entryX=0;entryY=0.5;entryDx=0;entryDy=0;startFill=0;fillColor=#f5f5f5;strokeColor=#888888;dashed=1;dashPattern=1 1;" parent="1" source="DvLTwoatMuHRshKrIxOl-134" target="DvLTwoatMuHRshKrIxOl-145" edge="1">
          <mxGeometry width="50" height="50" relative="1" as="geometry">
            <mxPoint x="885" y="486" as="sourcePoint" />
            <mxPoint x="989" y="487" as="targetPoint" />
          </mxGeometry>
        </mxCell>
        <mxCell id="DvLTwoatMuHRshKrIxOl-147" value="" style="endArrow=none;html=1;rounded=0;exitX=1;exitY=1;exitDx=0;exitDy=0;entryX=0;entryY=0.5;entryDx=0;entryDy=0;startFill=0;fillColor=#f5f5f5;strokeColor=#888888;dashed=1;dashPattern=1 1;" parent="1" source="DvLTwoatMuHRshKrIxOl-134" target="DvLTwoatMuHRshKrIxOl-145" edge="1">
          <mxGeometry width="50" height="50" relative="1" as="geometry">
            <mxPoint x="873" y="453" as="sourcePoint" />
            <mxPoint x="1003" y="472" as="targetPoint" />
          </mxGeometry>
        </mxCell>
        <mxCell id="DvLTwoatMuHRshKrIxOl-148" value="" style="endArrow=none;html=1;rounded=0;exitX=1;exitY=0;exitDx=0;exitDy=0;entryX=0;entryY=0.5;entryDx=0;entryDy=0;startFill=0;fillColor=#f5f5f5;strokeColor=#888888;dashed=1;dashPattern=1 1;" parent="1" source="DvLTwoatMuHRshKrIxOl-143" target="DvLTwoatMuHRshKrIxOl-144" edge="1">
          <mxGeometry width="50" height="50" relative="1" as="geometry">
            <mxPoint x="966" y="514" as="sourcePoint" />
            <mxPoint x="1095" y="512" as="targetPoint" />
          </mxGeometry>
        </mxCell>
        <mxCell id="DvLTwoatMuHRshKrIxOl-149" value="" style="endArrow=none;html=1;rounded=0;exitX=1;exitY=1;exitDx=0;exitDy=0;entryX=0;entryY=0.5;entryDx=0;entryDy=0;startFill=0;fillColor=#f5f5f5;strokeColor=#888888;dashed=1;dashPattern=1 1;" parent="1" source="DvLTwoatMuHRshKrIxOl-143" target="DvLTwoatMuHRshKrIxOl-144" edge="1">
          <mxGeometry width="50" height="50" relative="1" as="geometry">
            <mxPoint x="997" y="490" as="sourcePoint" />
            <mxPoint x="1097" y="492" as="targetPoint" />
          </mxGeometry>
        </mxCell>
        <mxCell id="DvLTwoatMuHRshKrIxOl-150" value="" style="whiteSpace=wrap;html=1;aspect=fixed;fillColor=#d5e8d4;strokeColor=#82b366;shadow=1;opacity=80;" parent="1" vertex="1">
          <mxGeometry x="1082" y="436" width="29" height="29" as="geometry" />
        </mxCell>
        <mxCell id="DvLTwoatMuHRshKrIxOl-151" value="" style="whiteSpace=wrap;html=1;aspect=fixed;fillColor=#d5e8d4;strokeColor=#82b366;shadow=1;opacity=80;" parent="1" vertex="1">
          <mxGeometry x="1086" y="440" width="29" height="29" as="geometry" />
        </mxCell>
        <mxCell id="DvLTwoatMuHRshKrIxOl-164" value="" style="whiteSpace=wrap;html=1;aspect=fixed;fillColor=#d5e8d4;strokeColor=#82b366;shadow=1;opacity=80;" parent="1" vertex="1">
          <mxGeometry x="1091" y="444" width="29" height="29" as="geometry" />
        </mxCell>
        <mxCell id="DvLTwoatMuHRshKrIxOl-165" value="" style="whiteSpace=wrap;html=1;aspect=fixed;fillColor=#d5e8d4;strokeColor=#82b366;shadow=1;opacity=80;" parent="1" vertex="1">
          <mxGeometry x="1095" y="448" width="29" height="29" as="geometry" />
        </mxCell>
        <mxCell id="DvLTwoatMuHRshKrIxOl-166" value="&lt;b&gt;&lt;font&gt;4x29x29&lt;/font&gt;&lt;/b&gt;" style="text;html=1;align=center;verticalAlign=middle;whiteSpace=wrap;rounded=1;strokeColor=none;fillColor=none;fontColor=#404040;dashed=1;dashPattern=1 1;fontSize=10;" parent="1" vertex="1">
          <mxGeometry x="1080.5" y="481" width="58" height="20" as="geometry" />
        </mxCell>
        <mxCell id="DvLTwoatMuHRshKrIxOl-171" value="&lt;font color=&quot;#404040&quot;&gt;&lt;span style=&quot;font-size: 10px;&quot;&gt;&lt;b&gt;Dropout&lt;/b&gt;&lt;/span&gt;&lt;/font&gt;" style="text;html=1;align=center;verticalAlign=middle;whiteSpace=wrap;rounded=1;strokeColor=#666666;fillColor=default;fontColor=#333333;dashed=1;dashPattern=1 1;fontSize=12;fillStyle=dots;arcSize=50;" parent="1" vertex="1">
          <mxGeometry x="1032" y="336" width="68" height="20" as="geometry" />
        </mxCell>
        <mxCell id="DvLTwoatMuHRshKrIxOl-234" style="rounded=0;orthogonalLoop=1;jettySize=auto;html=1;exitX=1;exitY=0.5;exitDx=0;exitDy=0;entryX=0;entryY=0.5;entryDx=0;entryDy=0;endArrow=none;startFill=0;fillColor=#f5f5f5;strokeColor=#666666;strokeWidth=0.5;" parent="1" source="DvLTwoatMuHRshKrIxOl-185" target="DvLTwoatMuHRshKrIxOl-207" edge="1">
          <mxGeometry relative="1" as="geometry" />
        </mxCell>
        <mxCell id="Rx0N3biQeZJ-gyF1oq_y-96" style="rounded=0;orthogonalLoop=1;jettySize=auto;html=1;exitX=1;exitY=0.5;exitDx=0;exitDy=0;entryX=0;entryY=0.5;entryDx=0;entryDy=0;fillColor=#f5f5f5;strokeColor=#666666;strokeWidth=0.5;endArrow=none;startFill=0;" parent="1" source="DvLTwoatMuHRshKrIxOl-185" target="DvLTwoatMuHRshKrIxOl-210" edge="1">
          <mxGeometry relative="1" as="geometry" />
        </mxCell>
        <mxCell id="Rx0N3biQeZJ-gyF1oq_y-104" style="rounded=0;orthogonalLoop=1;jettySize=auto;html=1;exitX=1;exitY=0.5;exitDx=0;exitDy=0;entryX=0;entryY=0.5;entryDx=0;entryDy=0;strokeWidth=0.5;fillColor=#f5f5f5;strokeColor=#666666;endArrow=none;startFill=0;" parent="1" source="DvLTwoatMuHRshKrIxOl-185" target="DvLTwoatMuHRshKrIxOl-209" edge="1">
          <mxGeometry relative="1" as="geometry" />
        </mxCell>
        <mxCell id="DvLTwoatMuHRshKrIxOl-185" value="" style="whiteSpace=wrap;html=1;aspect=fixed;fillColor=#e1d5e7;strokeColor=#9673a6;shadow=1;opacity=80;" parent="1" vertex="1">
          <mxGeometry x="1156" y="353" width="14" height="14" as="geometry" />
        </mxCell>
        <mxCell id="DvLTwoatMuHRshKrIxOl-235" style="rounded=0;orthogonalLoop=1;jettySize=auto;html=1;exitX=1;exitY=0.5;exitDx=0;exitDy=0;entryX=0;entryY=0.5;entryDx=0;entryDy=0;endArrow=none;startFill=0;fillColor=#f5f5f5;strokeColor=#666666;strokeWidth=0.5;" parent="1" source="DvLTwoatMuHRshKrIxOl-189" target="DvLTwoatMuHRshKrIxOl-207" edge="1">
          <mxGeometry relative="1" as="geometry" />
        </mxCell>
        <mxCell id="Rx0N3biQeZJ-gyF1oq_y-95" style="rounded=0;orthogonalLoop=1;jettySize=auto;html=1;exitX=1;exitY=0.5;exitDx=0;exitDy=0;entryX=0;entryY=0.5;entryDx=0;entryDy=0;fillColor=#f5f5f5;strokeColor=#666666;strokeWidth=0.5;endArrow=none;startFill=0;" parent="1" source="DvLTwoatMuHRshKrIxOl-189" target="DvLTwoatMuHRshKrIxOl-210" edge="1">
          <mxGeometry relative="1" as="geometry" />
        </mxCell>
        <mxCell id="Rx0N3biQeZJ-gyF1oq_y-103" style="rounded=0;orthogonalLoop=1;jettySize=auto;html=1;exitX=1;exitY=0.5;exitDx=0;exitDy=0;entryX=0;entryY=0.5;entryDx=0;entryDy=0;strokeWidth=0.5;fillColor=#f5f5f5;strokeColor=#666666;endArrow=none;startFill=0;" parent="1" source="DvLTwoatMuHRshKrIxOl-189" target="DvLTwoatMuHRshKrIxOl-209" edge="1">
          <mxGeometry relative="1" as="geometry" />
        </mxCell>
        <mxCell id="DvLTwoatMuHRshKrIxOl-189" value="" style="whiteSpace=wrap;html=1;aspect=fixed;fillColor=#e1d5e7;strokeColor=#9673a6;shadow=1;opacity=80;" parent="1" vertex="1">
          <mxGeometry x="1156" y="367" width="14" height="14" as="geometry" />
        </mxCell>
        <mxCell id="DvLTwoatMuHRshKrIxOl-237" style="rounded=0;orthogonalLoop=1;jettySize=auto;html=1;exitX=1;exitY=0.5;exitDx=0;exitDy=0;entryX=0;entryY=0.5;entryDx=0;entryDy=0;endArrow=none;startFill=0;fillColor=#f5f5f5;strokeColor=#666666;strokeWidth=0.5;" parent="1" source="DvLTwoatMuHRshKrIxOl-191" target="DvLTwoatMuHRshKrIxOl-207" edge="1">
          <mxGeometry relative="1" as="geometry" />
        </mxCell>
        <mxCell id="Rx0N3biQeZJ-gyF1oq_y-94" style="rounded=0;orthogonalLoop=1;jettySize=auto;html=1;exitX=1;exitY=0.5;exitDx=0;exitDy=0;entryX=0;entryY=0.5;entryDx=0;entryDy=0;fillColor=#f5f5f5;strokeColor=#666666;strokeWidth=0.5;endArrow=none;startFill=0;" parent="1" source="DvLTwoatMuHRshKrIxOl-191" target="DvLTwoatMuHRshKrIxOl-210" edge="1">
          <mxGeometry relative="1" as="geometry" />
        </mxCell>
        <mxCell id="Rx0N3biQeZJ-gyF1oq_y-102" style="rounded=0;orthogonalLoop=1;jettySize=auto;html=1;exitX=1;exitY=0.5;exitDx=0;exitDy=0;entryX=0;entryY=0.5;entryDx=0;entryDy=0;strokeWidth=0.5;fillColor=#f5f5f5;strokeColor=#666666;endArrow=none;startFill=0;" parent="1" source="DvLTwoatMuHRshKrIxOl-191" target="DvLTwoatMuHRshKrIxOl-209" edge="1">
          <mxGeometry relative="1" as="geometry" />
        </mxCell>
        <mxCell id="DvLTwoatMuHRshKrIxOl-191" value="" style="whiteSpace=wrap;html=1;aspect=fixed;fillColor=#e1d5e7;strokeColor=#9673a6;shadow=1;opacity=80;" parent="1" vertex="1">
          <mxGeometry x="1156" y="381" width="14" height="14" as="geometry" />
        </mxCell>
        <mxCell id="DvLTwoatMuHRshKrIxOl-239" style="rounded=0;orthogonalLoop=1;jettySize=auto;html=1;exitX=1;exitY=0.5;exitDx=0;exitDy=0;entryX=0;entryY=0.5;entryDx=0;entryDy=0;endArrow=none;startFill=0;fillColor=#f5f5f5;strokeColor=#666666;strokeWidth=0.5;" parent="1" source="DvLTwoatMuHRshKrIxOl-192" target="DvLTwoatMuHRshKrIxOl-207" edge="1">
          <mxGeometry relative="1" as="geometry" />
        </mxCell>
        <mxCell id="Rx0N3biQeZJ-gyF1oq_y-93" style="rounded=0;orthogonalLoop=1;jettySize=auto;html=1;exitX=1;exitY=0.5;exitDx=0;exitDy=0;entryX=0;entryY=0.5;entryDx=0;entryDy=0;fillColor=#f5f5f5;strokeColor=#666666;strokeWidth=0.5;endArrow=none;startFill=0;" parent="1" source="DvLTwoatMuHRshKrIxOl-192" target="DvLTwoatMuHRshKrIxOl-210" edge="1">
          <mxGeometry relative="1" as="geometry" />
        </mxCell>
        <mxCell id="Rx0N3biQeZJ-gyF1oq_y-101" style="rounded=0;orthogonalLoop=1;jettySize=auto;html=1;exitX=1;exitY=0.5;exitDx=0;exitDy=0;entryX=0;entryY=0.5;entryDx=0;entryDy=0;strokeWidth=0.5;fillColor=#f5f5f5;strokeColor=#666666;endArrow=none;startFill=0;" parent="1" source="DvLTwoatMuHRshKrIxOl-192" target="DvLTwoatMuHRshKrIxOl-209" edge="1">
          <mxGeometry relative="1" as="geometry" />
        </mxCell>
        <mxCell id="DvLTwoatMuHRshKrIxOl-192" value="" style="whiteSpace=wrap;html=1;aspect=fixed;fillColor=#e1d5e7;strokeColor=#9673a6;shadow=1;opacity=80;" parent="1" vertex="1">
          <mxGeometry x="1156" y="395" width="14" height="14" as="geometry" />
        </mxCell>
        <mxCell id="DvLTwoatMuHRshKrIxOl-240" style="rounded=0;orthogonalLoop=1;jettySize=auto;html=1;exitX=1;exitY=0.5;exitDx=0;exitDy=0;entryX=0;entryY=0.5;entryDx=0;entryDy=0;endArrow=none;startFill=0;fillColor=#f5f5f5;strokeColor=#666666;strokeWidth=0.5;" parent="1" source="DvLTwoatMuHRshKrIxOl-193" target="DvLTwoatMuHRshKrIxOl-207" edge="1">
          <mxGeometry relative="1" as="geometry" />
        </mxCell>
        <mxCell id="Rx0N3biQeZJ-gyF1oq_y-92" style="rounded=0;orthogonalLoop=1;jettySize=auto;html=1;exitX=1;exitY=0.5;exitDx=0;exitDy=0;entryX=0;entryY=0.5;entryDx=0;entryDy=0;fillColor=#f5f5f5;strokeColor=#666666;strokeWidth=0.5;endArrow=none;startFill=0;" parent="1" source="DvLTwoatMuHRshKrIxOl-193" target="DvLTwoatMuHRshKrIxOl-210" edge="1">
          <mxGeometry relative="1" as="geometry" />
        </mxCell>
        <mxCell id="Rx0N3biQeZJ-gyF1oq_y-100" style="rounded=0;orthogonalLoop=1;jettySize=auto;html=1;exitX=1;exitY=0.5;exitDx=0;exitDy=0;entryX=0;entryY=0.5;entryDx=0;entryDy=0;strokeWidth=0.5;fillColor=#f5f5f5;strokeColor=#666666;endArrow=none;startFill=0;" parent="1" source="DvLTwoatMuHRshKrIxOl-193" target="DvLTwoatMuHRshKrIxOl-209" edge="1">
          <mxGeometry relative="1" as="geometry" />
        </mxCell>
        <mxCell id="DvLTwoatMuHRshKrIxOl-193" value="" style="whiteSpace=wrap;html=1;aspect=fixed;fillColor=#e1d5e7;strokeColor=#9673a6;shadow=1;opacity=80;" parent="1" vertex="1">
          <mxGeometry x="1156" y="409" width="14" height="14" as="geometry" />
        </mxCell>
        <mxCell id="DvLTwoatMuHRshKrIxOl-241" style="rounded=0;orthogonalLoop=1;jettySize=auto;html=1;exitX=1;exitY=0.5;exitDx=0;exitDy=0;entryX=0;entryY=0.5;entryDx=0;entryDy=0;endArrow=none;startFill=0;fillColor=#f5f5f5;strokeColor=#666666;strokeWidth=0.5;" parent="1" source="DvLTwoatMuHRshKrIxOl-194" target="DvLTwoatMuHRshKrIxOl-207" edge="1">
          <mxGeometry relative="1" as="geometry">
            <mxPoint x="1226" y="400" as="targetPoint" />
          </mxGeometry>
        </mxCell>
        <mxCell id="Rx0N3biQeZJ-gyF1oq_y-91" style="rounded=0;orthogonalLoop=1;jettySize=auto;html=1;exitX=1;exitY=0.5;exitDx=0;exitDy=0;entryX=0;entryY=0.5;entryDx=0;entryDy=0;fillColor=#f5f5f5;strokeColor=#666666;strokeWidth=0.5;endArrow=none;startFill=0;" parent="1" source="DvLTwoatMuHRshKrIxOl-194" target="DvLTwoatMuHRshKrIxOl-210" edge="1">
          <mxGeometry relative="1" as="geometry" />
        </mxCell>
        <mxCell id="Rx0N3biQeZJ-gyF1oq_y-99" style="rounded=0;orthogonalLoop=1;jettySize=auto;html=1;exitX=1;exitY=0.5;exitDx=0;exitDy=0;entryX=0;entryY=0.5;entryDx=0;entryDy=0;strokeWidth=0.5;fillColor=#f5f5f5;strokeColor=#666666;endArrow=none;startFill=0;" parent="1" source="DvLTwoatMuHRshKrIxOl-194" target="DvLTwoatMuHRshKrIxOl-209" edge="1">
          <mxGeometry relative="1" as="geometry" />
        </mxCell>
        <mxCell id="DvLTwoatMuHRshKrIxOl-194" value="" style="whiteSpace=wrap;html=1;aspect=fixed;fillColor=#e1d5e7;strokeColor=#9673a6;shadow=1;opacity=80;" parent="1" vertex="1">
          <mxGeometry x="1156" y="423" width="14" height="14" as="geometry" />
        </mxCell>
        <mxCell id="DvLTwoatMuHRshKrIxOl-242" style="rounded=0;orthogonalLoop=1;jettySize=auto;html=1;exitX=1;exitY=0.5;exitDx=0;exitDy=0;entryX=0;entryY=0.5;entryDx=0;entryDy=0;endArrow=none;startFill=0;fillColor=#f5f5f5;strokeColor=#666666;strokeWidth=0.5;" parent="1" source="DvLTwoatMuHRshKrIxOl-195" target="DvLTwoatMuHRshKrIxOl-207" edge="1">
          <mxGeometry relative="1" as="geometry">
            <mxPoint x="1226" y="400" as="targetPoint" />
          </mxGeometry>
        </mxCell>
        <mxCell id="Rx0N3biQeZJ-gyF1oq_y-89" style="rounded=0;orthogonalLoop=1;jettySize=auto;html=1;exitX=1;exitY=0.5;exitDx=0;exitDy=0;entryX=0;entryY=0.5;entryDx=0;entryDy=0;fillColor=#f5f5f5;strokeColor=#666666;strokeWidth=0.5;endArrow=none;startFill=0;" parent="1" source="DvLTwoatMuHRshKrIxOl-195" target="DvLTwoatMuHRshKrIxOl-210" edge="1">
          <mxGeometry relative="1" as="geometry" />
        </mxCell>
        <mxCell id="Rx0N3biQeZJ-gyF1oq_y-98" style="rounded=0;orthogonalLoop=1;jettySize=auto;html=1;exitX=1;exitY=0.5;exitDx=0;exitDy=0;entryX=0;entryY=0.5;entryDx=0;entryDy=0;strokeWidth=0.5;fillColor=#f5f5f5;strokeColor=#666666;endArrow=none;startFill=0;" parent="1" source="DvLTwoatMuHRshKrIxOl-195" target="DvLTwoatMuHRshKrIxOl-209" edge="1">
          <mxGeometry relative="1" as="geometry" />
        </mxCell>
        <mxCell id="DvLTwoatMuHRshKrIxOl-195" value="" style="whiteSpace=wrap;html=1;aspect=fixed;fillColor=#e1d5e7;strokeColor=#9673a6;shadow=1;opacity=80;" parent="1" vertex="1">
          <mxGeometry x="1156" y="437" width="14" height="14" as="geometry" />
        </mxCell>
        <mxCell id="DvLTwoatMuHRshKrIxOl-243" style="rounded=0;orthogonalLoop=1;jettySize=auto;html=1;exitX=1;exitY=0.5;exitDx=0;exitDy=0;entryX=0;entryY=0.5;entryDx=0;entryDy=0;fillColor=#f5f5f5;strokeColor=#666666;strokeWidth=0.5;endArrow=none;startFill=0;" parent="1" source="DvLTwoatMuHRshKrIxOl-199" target="DvLTwoatMuHRshKrIxOl-207" edge="1">
          <mxGeometry relative="1" as="geometry" />
        </mxCell>
        <mxCell id="DvLTwoatMuHRshKrIxOl-199" value="" style="whiteSpace=wrap;html=1;aspect=fixed;fillColor=#e1d5e7;strokeColor=#9673a6;shadow=1;opacity=80;" parent="1" vertex="1">
          <mxGeometry x="1156" y="483" width="14" height="14" as="geometry" />
        </mxCell>
        <mxCell id="DvLTwoatMuHRshKrIxOl-244" style="rounded=0;orthogonalLoop=1;jettySize=auto;html=1;exitX=1;exitY=0.5;exitDx=0;exitDy=0;entryX=0;entryY=0.5;entryDx=0;entryDy=0;fillColor=#f5f5f5;strokeColor=#666666;strokeWidth=0.5;endArrow=none;startFill=0;" parent="1" source="DvLTwoatMuHRshKrIxOl-200" target="DvLTwoatMuHRshKrIxOl-207" edge="1">
          <mxGeometry relative="1" as="geometry" />
        </mxCell>
        <mxCell id="Rx0N3biQeZJ-gyF1oq_y-88" style="rounded=0;orthogonalLoop=1;jettySize=auto;html=1;exitX=1;exitY=0.5;exitDx=0;exitDy=0;entryX=0;entryY=0.5;entryDx=0;entryDy=0;fillColor=#f5f5f5;strokeColor=#666666;strokeWidth=0.5;endArrow=none;startFill=0;" parent="1" source="DvLTwoatMuHRshKrIxOl-200" target="DvLTwoatMuHRshKrIxOl-210" edge="1">
          <mxGeometry relative="1" as="geometry" />
        </mxCell>
        <mxCell id="Rx0N3biQeZJ-gyF1oq_y-97" style="rounded=0;orthogonalLoop=1;jettySize=auto;html=1;exitX=1;exitY=0.5;exitDx=0;exitDy=0;entryX=0;entryY=0.5;entryDx=0;entryDy=0;strokeWidth=0.5;fillColor=#f5f5f5;strokeColor=#666666;endArrow=none;startFill=0;" parent="1" source="DvLTwoatMuHRshKrIxOl-200" target="DvLTwoatMuHRshKrIxOl-209" edge="1">
          <mxGeometry relative="1" as="geometry" />
        </mxCell>
        <mxCell id="DvLTwoatMuHRshKrIxOl-200" value="" style="whiteSpace=wrap;html=1;aspect=fixed;fillColor=#e1d5e7;strokeColor=#9673a6;shadow=1;opacity=80;" parent="1" vertex="1">
          <mxGeometry x="1156" y="497" width="14" height="14" as="geometry" />
        </mxCell>
        <mxCell id="DvLTwoatMuHRshKrIxOl-201" value="" style="ellipse;whiteSpace=wrap;html=1;aspect=fixed;fillColor=#f5f5f5;fontColor=#333333;strokeColor=#666666;" parent="1" vertex="1">
          <mxGeometry x="1161" y="456" width="4" height="4" as="geometry" />
        </mxCell>
        <mxCell id="DvLTwoatMuHRshKrIxOl-202" value="" style="ellipse;whiteSpace=wrap;html=1;aspect=fixed;fillColor=#f5f5f5;fontColor=#333333;strokeColor=#666666;" parent="1" vertex="1">
          <mxGeometry x="1161" y="465" width="4" height="4" as="geometry" />
        </mxCell>
        <mxCell id="DvLTwoatMuHRshKrIxOl-203" value="" style="ellipse;whiteSpace=wrap;html=1;aspect=fixed;fillColor=#f5f5f5;fontColor=#333333;strokeColor=#666666;" parent="1" vertex="1">
          <mxGeometry x="1161" y="474" width="4" height="4" as="geometry" />
        </mxCell>
        <mxCell id="DvLTwoatMuHRshKrIxOl-204" value="" style="endArrow=none;html=1;rounded=0;exitX=1;exitY=0;exitDx=0;exitDy=0;entryX=0;entryY=0;entryDx=0;entryDy=0;startFill=0;fillColor=#f5f5f5;strokeColor=#888888;dashed=1;dashPattern=1 1;" parent="1" source="DvLTwoatMuHRshKrIxOl-150" target="DvLTwoatMuHRshKrIxOl-185" edge="1">
          <mxGeometry width="50" height="50" relative="1" as="geometry">
            <mxPoint x="1084.5" y="380" as="sourcePoint" />
            <mxPoint x="1184.5" y="366" as="targetPoint" />
          </mxGeometry>
        </mxCell>
        <mxCell id="DvLTwoatMuHRshKrIxOl-205" value="" style="endArrow=none;html=1;rounded=0;exitX=1;exitY=1;exitDx=0;exitDy=0;entryX=0;entryY=1;entryDx=0;entryDy=0;startFill=0;fillColor=#f5f5f5;strokeColor=#888888;dashed=1;dashPattern=1 1;" parent="1" source="DvLTwoatMuHRshKrIxOl-165" target="DvLTwoatMuHRshKrIxOl-200" edge="1">
          <mxGeometry width="50" height="50" relative="1" as="geometry">
            <mxPoint x="1148" y="581" as="sourcePoint" />
            <mxPoint x="1244" y="519" as="targetPoint" />
          </mxGeometry>
        </mxCell>
        <mxCell id="DvLTwoatMuHRshKrIxOl-206" value="&lt;font color=&quot;#404040&quot;&gt;&lt;span style=&quot;font-size: 10px;&quot;&gt;&lt;b&gt;Flattened&lt;/b&gt;&lt;/span&gt;&lt;/font&gt;" style="text;html=1;align=center;verticalAlign=middle;whiteSpace=wrap;rounded=1;strokeColor=#666666;fillColor=default;fontColor=#333333;dashed=1;dashPattern=1 1;fontSize=12;fillStyle=dots;arcSize=50;" parent="1" vertex="1">
          <mxGeometry x="1131.75" y="329" width="62.5" height="20" as="geometry" />
        </mxCell>
        <mxCell id="Rx0N3biQeZJ-gyF1oq_y-42" style="rounded=0;orthogonalLoop=1;jettySize=auto;html=1;exitX=1;exitY=0.5;exitDx=0;exitDy=0;entryX=0;entryY=0.5;entryDx=0;entryDy=0;endArrow=none;startFill=0;strokeWidth=0.5;fillColor=#f5f5f5;strokeColor=#666666;shadow=1;" parent="1" source="DvLTwoatMuHRshKrIxOl-207" target="Rx0N3biQeZJ-gyF1oq_y-38" edge="1">
          <mxGeometry relative="1" as="geometry" />
        </mxCell>
        <mxCell id="Rx0N3biQeZJ-gyF1oq_y-47" style="rounded=0;orthogonalLoop=1;jettySize=auto;html=1;exitX=1;exitY=0.5;exitDx=0;exitDy=0;entryX=0;entryY=0.5;entryDx=0;entryDy=0;endArrow=none;startFill=0;fillColor=#f5f5f5;strokeColor=#666666;strokeWidth=0.5;" parent="1" source="DvLTwoatMuHRshKrIxOl-207" target="Rx0N3biQeZJ-gyF1oq_y-39" edge="1">
          <mxGeometry relative="1" as="geometry" />
        </mxCell>
        <mxCell id="Rx0N3biQeZJ-gyF1oq_y-55" style="rounded=0;orthogonalLoop=1;jettySize=auto;html=1;exitX=1;exitY=0.5;exitDx=0;exitDy=0;entryX=0;entryY=0.5;entryDx=0;entryDy=0;endArrow=none;startFill=0;fillColor=#f5f5f5;strokeColor=#666666;strokeWidth=0.5;" parent="1" source="DvLTwoatMuHRshKrIxOl-207" target="Rx0N3biQeZJ-gyF1oq_y-40" edge="1">
          <mxGeometry relative="1" as="geometry" />
        </mxCell>
        <mxCell id="DvLTwoatMuHRshKrIxOl-207" value="" style="ellipse;whiteSpace=wrap;html=1;aspect=fixed;fillColor=#f5f5f5;fontColor=#333333;strokeColor=#868686;strokeWidth=2;" parent="1" vertex="1">
          <mxGeometry x="1225.0100000000002" y="372.75" width="14" height="14" as="geometry" />
        </mxCell>
        <mxCell id="Rx0N3biQeZJ-gyF1oq_y-43" style="rounded=0;orthogonalLoop=1;jettySize=auto;html=1;exitX=1;exitY=0.5;exitDx=0;exitDy=0;entryX=0;entryY=0.5;entryDx=0;entryDy=0;endArrow=none;startFill=0;strokeWidth=0.5;fillColor=#f5f5f5;strokeColor=#666666;shadow=1;" parent="1" source="DvLTwoatMuHRshKrIxOl-208" target="Rx0N3biQeZJ-gyF1oq_y-38" edge="1">
          <mxGeometry relative="1" as="geometry" />
        </mxCell>
        <mxCell id="Rx0N3biQeZJ-gyF1oq_y-48" style="rounded=0;orthogonalLoop=1;jettySize=auto;html=1;exitX=1;exitY=0.5;exitDx=0;exitDy=0;entryX=0;entryY=0.5;entryDx=0;entryDy=0;endArrow=none;startFill=0;fillColor=#f5f5f5;strokeColor=#666666;strokeWidth=0.5;" parent="1" source="DvLTwoatMuHRshKrIxOl-208" target="Rx0N3biQeZJ-gyF1oq_y-39" edge="1">
          <mxGeometry relative="1" as="geometry" />
        </mxCell>
        <mxCell id="Rx0N3biQeZJ-gyF1oq_y-54" style="rounded=0;orthogonalLoop=1;jettySize=auto;html=1;exitX=1;exitY=0.5;exitDx=0;exitDy=0;entryX=0;entryY=0.5;entryDx=0;entryDy=0;endArrow=none;startFill=0;fillColor=#f5f5f5;strokeColor=#666666;strokeWidth=0.5;" parent="1" source="DvLTwoatMuHRshKrIxOl-208" target="Rx0N3biQeZJ-gyF1oq_y-40" edge="1">
          <mxGeometry relative="1" as="geometry" />
        </mxCell>
        <mxCell id="DvLTwoatMuHRshKrIxOl-208" value="" style="ellipse;whiteSpace=wrap;html=1;aspect=fixed;fillColor=#f5f5f5;fontColor=#333333;strokeColor=#868686;strokeWidth=2;" parent="1" vertex="1">
          <mxGeometry x="1225.0100000000002" y="407.75" width="14" height="14" as="geometry" />
        </mxCell>
        <mxCell id="Rx0N3biQeZJ-gyF1oq_y-44" style="rounded=0;orthogonalLoop=1;jettySize=auto;html=1;exitX=1;exitY=0.5;exitDx=0;exitDy=0;entryX=0;entryY=0.5;entryDx=0;entryDy=0;endArrow=none;startFill=0;strokeWidth=0.5;fillColor=#f5f5f5;strokeColor=#666666;shadow=1;" parent="1" source="DvLTwoatMuHRshKrIxOl-209" target="Rx0N3biQeZJ-gyF1oq_y-38" edge="1">
          <mxGeometry relative="1" as="geometry" />
        </mxCell>
        <mxCell id="Rx0N3biQeZJ-gyF1oq_y-50" style="rounded=0;orthogonalLoop=1;jettySize=auto;html=1;exitX=1;exitY=0.5;exitDx=0;exitDy=0;entryX=0;entryY=0.5;entryDx=0;entryDy=0;endArrow=none;startFill=0;fillColor=#f5f5f5;strokeColor=#666666;strokeWidth=0.5;" parent="1" source="DvLTwoatMuHRshKrIxOl-209" target="Rx0N3biQeZJ-gyF1oq_y-39" edge="1">
          <mxGeometry relative="1" as="geometry" />
        </mxCell>
        <mxCell id="Rx0N3biQeZJ-gyF1oq_y-52" style="rounded=0;orthogonalLoop=1;jettySize=auto;html=1;exitX=1;exitY=0.5;exitDx=0;exitDy=0;entryX=0;entryY=0.5;entryDx=0;entryDy=0;endArrow=none;startFill=0;fillColor=#f5f5f5;strokeColor=#666666;strokeWidth=0.5;" parent="1" source="DvLTwoatMuHRshKrIxOl-209" target="Rx0N3biQeZJ-gyF1oq_y-40" edge="1">
          <mxGeometry relative="1" as="geometry" />
        </mxCell>
        <mxCell id="DvLTwoatMuHRshKrIxOl-209" value="" style="ellipse;whiteSpace=wrap;html=1;aspect=fixed;fillColor=#f5f5f5;fontColor=#333333;strokeColor=#868686;strokeWidth=2;" parent="1" vertex="1">
          <mxGeometry x="1225.0100000000002" y="442.75" width="14" height="14" as="geometry" />
        </mxCell>
        <mxCell id="Rx0N3biQeZJ-gyF1oq_y-46" style="rounded=0;orthogonalLoop=1;jettySize=auto;html=1;exitX=1;exitY=0.5;exitDx=0;exitDy=0;entryX=0;entryY=0.5;entryDx=0;entryDy=0;endArrow=none;startFill=0;strokeWidth=0.5;fillColor=#f5f5f5;strokeColor=#666666;shadow=1;" parent="1" source="DvLTwoatMuHRshKrIxOl-210" target="Rx0N3biQeZJ-gyF1oq_y-38" edge="1">
          <mxGeometry relative="1" as="geometry" />
        </mxCell>
        <mxCell id="Rx0N3biQeZJ-gyF1oq_y-49" style="rounded=0;orthogonalLoop=1;jettySize=auto;html=1;exitX=1;exitY=0.5;exitDx=0;exitDy=0;entryX=0;entryY=0.5;entryDx=0;entryDy=0;endArrow=none;startFill=0;fillColor=#f5f5f5;strokeColor=#666666;strokeWidth=0.5;" parent="1" source="DvLTwoatMuHRshKrIxOl-210" target="Rx0N3biQeZJ-gyF1oq_y-39" edge="1">
          <mxGeometry relative="1" as="geometry" />
        </mxCell>
        <mxCell id="Rx0N3biQeZJ-gyF1oq_y-51" style="rounded=0;orthogonalLoop=1;jettySize=auto;html=1;exitX=1;exitY=0.5;exitDx=0;exitDy=0;entryX=0;entryY=0.5;entryDx=0;entryDy=0;endArrow=none;startFill=0;fillColor=#f5f5f5;strokeColor=#666666;strokeWidth=0.5;" parent="1" source="DvLTwoatMuHRshKrIxOl-210" target="Rx0N3biQeZJ-gyF1oq_y-40" edge="1">
          <mxGeometry relative="1" as="geometry" />
        </mxCell>
        <mxCell id="DvLTwoatMuHRshKrIxOl-210" value="" style="ellipse;whiteSpace=wrap;html=1;aspect=fixed;fillColor=#f5f5f5;fontColor=#333333;strokeColor=#868686;strokeWidth=2;" parent="1" vertex="1">
          <mxGeometry x="1225.0100000000002" y="477.5" width="14" height="14" as="geometry" />
        </mxCell>
        <mxCell id="DvLTwoatMuHRshKrIxOl-245" style="rounded=0;orthogonalLoop=1;jettySize=auto;html=1;exitX=1;exitY=0.5;exitDx=0;exitDy=0;entryX=0;entryY=0.5;entryDx=0;entryDy=0;endArrow=none;startFill=0;fillColor=#f5f5f5;strokeColor=#666666;strokeWidth=0.5;" parent="1" target="DvLTwoatMuHRshKrIxOl-208" edge="1">
          <mxGeometry relative="1" as="geometry">
            <mxPoint x="1170.01" y="360" as="sourcePoint" />
            <mxPoint x="1236.01" y="383" as="targetPoint" />
          </mxGeometry>
        </mxCell>
        <mxCell id="DvLTwoatMuHRshKrIxOl-246" style="rounded=0;orthogonalLoop=1;jettySize=auto;html=1;exitX=1;exitY=0.5;exitDx=0;exitDy=0;entryX=0;entryY=0.5;entryDx=0;entryDy=0;endArrow=none;startFill=0;fillColor=#f5f5f5;strokeColor=#666666;strokeWidth=0.5;" parent="1" target="DvLTwoatMuHRshKrIxOl-208" edge="1">
          <mxGeometry relative="1" as="geometry">
            <mxPoint x="1170.01" y="374" as="sourcePoint" />
            <mxPoint x="1236.01" y="383" as="targetPoint" />
          </mxGeometry>
        </mxCell>
        <mxCell id="DvLTwoatMuHRshKrIxOl-247" style="rounded=0;orthogonalLoop=1;jettySize=auto;html=1;exitX=1;exitY=0.5;exitDx=0;exitDy=0;entryX=0;entryY=0.5;entryDx=0;entryDy=0;endArrow=none;startFill=0;fillColor=#f5f5f5;strokeColor=#666666;strokeWidth=0.5;" parent="1" target="DvLTwoatMuHRshKrIxOl-208" edge="1">
          <mxGeometry relative="1" as="geometry">
            <mxPoint x="1170.01" y="388" as="sourcePoint" />
            <mxPoint x="1236.01" y="383" as="targetPoint" />
          </mxGeometry>
        </mxCell>
        <mxCell id="DvLTwoatMuHRshKrIxOl-248" style="rounded=0;orthogonalLoop=1;jettySize=auto;html=1;exitX=1;exitY=0.5;exitDx=0;exitDy=0;entryX=0;entryY=0.5;entryDx=0;entryDy=0;endArrow=none;startFill=0;fillColor=#f5f5f5;strokeColor=#666666;strokeWidth=0.5;" parent="1" target="DvLTwoatMuHRshKrIxOl-208" edge="1">
          <mxGeometry relative="1" as="geometry">
            <mxPoint x="1170.01" y="402" as="sourcePoint" />
            <mxPoint x="1236.01" y="383" as="targetPoint" />
          </mxGeometry>
        </mxCell>
        <mxCell id="DvLTwoatMuHRshKrIxOl-249" style="rounded=0;orthogonalLoop=1;jettySize=auto;html=1;exitX=1;exitY=0.5;exitDx=0;exitDy=0;entryX=0;entryY=0.5;entryDx=0;entryDy=0;endArrow=none;startFill=0;fillColor=#f5f5f5;strokeColor=#666666;strokeWidth=0.5;" parent="1" target="DvLTwoatMuHRshKrIxOl-208" edge="1">
          <mxGeometry relative="1" as="geometry">
            <mxPoint x="1170.01" y="416" as="sourcePoint" />
            <mxPoint x="1236.01" y="383" as="targetPoint" />
          </mxGeometry>
        </mxCell>
        <mxCell id="DvLTwoatMuHRshKrIxOl-250" style="rounded=0;orthogonalLoop=1;jettySize=auto;html=1;exitX=1;exitY=0.5;exitDx=0;exitDy=0;entryX=0;entryY=0.5;entryDx=0;entryDy=0;endArrow=none;startFill=0;fillColor=#f5f5f5;strokeColor=#666666;strokeWidth=0.5;" parent="1" target="DvLTwoatMuHRshKrIxOl-208" edge="1">
          <mxGeometry relative="1" as="geometry">
            <mxPoint x="1236.01" y="383" as="targetPoint" />
            <mxPoint x="1170.01" y="430" as="sourcePoint" />
          </mxGeometry>
        </mxCell>
        <mxCell id="DvLTwoatMuHRshKrIxOl-251" style="rounded=0;orthogonalLoop=1;jettySize=auto;html=1;exitX=1;exitY=0.5;exitDx=0;exitDy=0;entryX=0;entryY=0.5;entryDx=0;entryDy=0;endArrow=none;startFill=0;fillColor=#f5f5f5;strokeColor=#666666;strokeWidth=0.5;" parent="1" target="DvLTwoatMuHRshKrIxOl-208" edge="1">
          <mxGeometry relative="1" as="geometry">
            <mxPoint x="1236.01" y="383" as="targetPoint" />
            <mxPoint x="1170.01" y="444" as="sourcePoint" />
          </mxGeometry>
        </mxCell>
        <mxCell id="DvLTwoatMuHRshKrIxOl-252" style="rounded=0;orthogonalLoop=1;jettySize=auto;html=1;exitX=1;exitY=0.5;exitDx=0;exitDy=0;entryX=0;entryY=0.5;entryDx=0;entryDy=0;fillColor=#f5f5f5;strokeColor=#666666;strokeWidth=0.5;endArrow=none;startFill=0;" parent="1" target="DvLTwoatMuHRshKrIxOl-208" edge="1">
          <mxGeometry relative="1" as="geometry">
            <mxPoint x="1170.01" y="490" as="sourcePoint" />
            <mxPoint x="1236.01" y="383" as="targetPoint" />
          </mxGeometry>
        </mxCell>
        <mxCell id="DvLTwoatMuHRshKrIxOl-253" style="rounded=0;orthogonalLoop=1;jettySize=auto;html=1;exitX=1;exitY=0.5;exitDx=0;exitDy=0;entryX=0;entryY=0.5;entryDx=0;entryDy=0;fillColor=#f5f5f5;strokeColor=#666666;strokeWidth=0.5;endArrow=none;startFill=0;" parent="1" target="DvLTwoatMuHRshKrIxOl-208" edge="1">
          <mxGeometry relative="1" as="geometry">
            <mxPoint x="1170.01" y="504" as="sourcePoint" />
            <mxPoint x="1236.01" y="383" as="targetPoint" />
          </mxGeometry>
        </mxCell>
        <mxCell id="Rx0N3biQeZJ-gyF1oq_y-24" value="&lt;font style=&quot;color: rgb(40, 40, 40);&quot;&gt;&lt;b&gt;Ansatz&lt;/b&gt;&lt;/font&gt;" style="rounded=1;whiteSpace=wrap;html=1;horizontal=0;strokeWidth=1;fillColor=#b1ddf0;strokeColor=#10739e;fontSize=10;container=0;" parent="1" vertex="1">
          <mxGeometry x="1370.8" y="381.5" width="33.16" height="97" as="geometry" />
        </mxCell>
        <mxCell id="Rx0N3biQeZJ-gyF1oq_y-25" value="&lt;font style=&quot;color: rgb(40, 40, 40);&quot;&gt;&lt;b&gt;Data Encoding&lt;/b&gt;&lt;/font&gt;" style="rounded=1;whiteSpace=wrap;html=1;horizontal=0;strokeWidth=1;fillColor=#fad9d5;strokeColor=#ae4132;fontSize=10;container=0;" parent="1" vertex="1">
          <mxGeometry x="1325" y="381.5" width="33.16" height="97" as="geometry" />
        </mxCell>
        <mxCell id="Rx0N3biQeZJ-gyF1oq_y-3" value="" style="rounded=1;whiteSpace=wrap;html=1;horizontal=0;strokeWidth=1;fillColor=#f5f5f5;strokeColor=#666666;fontSize=10;container=0;fontColor=#333333;" parent="1" vertex="1">
          <mxGeometry x="1416.39896373057" y="415.0383870967742" width="28.601036269430054" height="28.935483870967737" as="geometry" />
        </mxCell>
        <mxCell id="Rx0N3biQeZJ-gyF1oq_y-4" value="" style="ellipse;whiteSpace=wrap;html=1;aspect=fixed;fillColor=#f5f5f5;strokeColor=#666666;strokeWidth=1;fontSize=10;container=0;fontColor=#333333;" parent="1" vertex="1">
          <mxGeometry x="1421.4766839378237" y="423.2158064516129" width="14.519836855765663" height="14.519836855765663" as="geometry" />
        </mxCell>
        <mxCell id="Rx0N3biQeZJ-gyF1oq_y-5" value="" style="rounded=0;whiteSpace=wrap;html=1;fillColor=#f5f5f5;strokeColor=none;fontSize=10;strokeWidth=1;container=0;fontColor=#333333;" parent="1" vertex="1">
          <mxGeometry x="1418.6538860103626" y="435.58677419354837" width="24.09119170984456" height="7.129032258064514" as="geometry" />
        </mxCell>
        <mxCell id="Rx0N3biQeZJ-gyF1oq_y-6" value="" style="endArrow=block;html=1;rounded=0;endFill=1;strokeWidth=1;fillColor=#f5f5f5;strokeColor=#666666;fontSize=10;" parent="1" edge="1">
          <mxGeometry width="50" height="50" relative="1" as="geometry">
            <mxPoint x="1425.0497409326422" y="432.6512903225807" as="sourcePoint" />
            <mxPoint x="1438.678756476684" y="417.97387096774196" as="targetPoint" />
          </mxGeometry>
        </mxCell>
        <mxCell id="Rx0N3biQeZJ-gyF1oq_y-7" value="" style="rounded=0;whiteSpace=wrap;html=1;fillColor=#f5f5f5;strokeColor=none;fontSize=10;strokeWidth=1;container=0;fontColor=#333333;" parent="1" vertex="1">
          <mxGeometry x="1420.3367875647668" y="431.3932258064516" width="20.725388601036272" height="7.129032258064514" as="geometry" />
        </mxCell>
        <mxCell id="Rx0N3biQeZJ-gyF1oq_y-9" value="" style="rounded=1;whiteSpace=wrap;html=1;horizontal=0;strokeWidth=1;fillColor=#f5f5f5;strokeColor=#666666;fontSize=10;container=0;fontColor=#333333;" parent="1" vertex="1">
          <mxGeometry x="1416.39896373057" y="381.5" width="28.601036269430054" height="28.935483870967737" as="geometry" />
        </mxCell>
        <mxCell id="Rx0N3biQeZJ-gyF1oq_y-10" value="" style="ellipse;whiteSpace=wrap;html=1;aspect=fixed;fillColor=#f5f5f5;strokeColor=#666666;strokeWidth=1;fontSize=10;container=0;fontColor=#333333;" parent="1" vertex="1">
          <mxGeometry x="1421.4766839378237" y="389.6774193548387" width="14.519836855765663" height="14.519836855765663" as="geometry" />
        </mxCell>
        <mxCell id="Rx0N3biQeZJ-gyF1oq_y-11" value="" style="rounded=0;whiteSpace=wrap;html=1;fillColor=#f5f5f5;strokeColor=none;fontSize=10;strokeWidth=1;container=0;fontColor=#333333;" parent="1" vertex="1">
          <mxGeometry x="1418.6538860103626" y="402.0483870967742" width="24.09119170984456" height="7.129032258064514" as="geometry" />
        </mxCell>
        <mxCell id="Rx0N3biQeZJ-gyF1oq_y-12" value="" style="endArrow=block;html=1;rounded=0;endFill=1;strokeWidth=1;fillColor=#f5f5f5;strokeColor=#666666;fontSize=10;" parent="1" edge="1">
          <mxGeometry width="50" height="50" relative="1" as="geometry">
            <mxPoint x="1425.0497409326422" y="399.11290322580646" as="sourcePoint" />
            <mxPoint x="1438.678756476684" y="384.43548387096774" as="targetPoint" />
          </mxGeometry>
        </mxCell>
        <mxCell id="Rx0N3biQeZJ-gyF1oq_y-13" value="" style="rounded=0;whiteSpace=wrap;html=1;fillColor=#f5f5f5;strokeColor=none;fontSize=10;strokeWidth=1;container=0;fontColor=#333333;" parent="1" vertex="1">
          <mxGeometry x="1420.3367875647668" y="397.85483870967744" width="20.725388601036272" height="7.129032258064514" as="geometry" />
        </mxCell>
        <mxCell id="Rx0N3biQeZJ-gyF1oq_y-15" value="" style="rounded=1;whiteSpace=wrap;html=1;horizontal=0;strokeWidth=1;fillColor=#f5f5f5;strokeColor=#666666;fontSize=10;container=0;fontColor=#333333;" parent="1" vertex="1">
          <mxGeometry x="1416.39896373057" y="449.5651612903226" width="28.601036269430054" height="28.935483870967737" as="geometry" />
        </mxCell>
        <mxCell id="Rx0N3biQeZJ-gyF1oq_y-16" value="" style="ellipse;whiteSpace=wrap;html=1;aspect=fixed;fillColor=#f5f5f5;strokeColor=#666666;strokeWidth=1;fontSize=10;container=0;fontColor=#333333;" parent="1" vertex="1">
          <mxGeometry x="1421.4766839378237" y="457.7425806451613" width="14.519836855765663" height="14.519836855765663" as="geometry" />
        </mxCell>
        <mxCell id="Rx0N3biQeZJ-gyF1oq_y-17" value="" style="rounded=0;whiteSpace=wrap;html=1;fillColor=#f5f5f5;strokeColor=none;fontSize=10;strokeWidth=1;container=0;fontColor=#333333;" parent="1" vertex="1">
          <mxGeometry x="1418.6538860103626" y="470.1135483870967" width="24.09119170984456" height="7.129032258064514" as="geometry" />
        </mxCell>
        <mxCell id="Rx0N3biQeZJ-gyF1oq_y-18" value="" style="endArrow=block;html=1;rounded=0;endFill=1;strokeWidth=1;fillColor=#f5f5f5;strokeColor=#666666;fontSize=10;" parent="1" edge="1">
          <mxGeometry width="50" height="50" relative="1" as="geometry">
            <mxPoint x="1425.0497409326422" y="467.17806451612904" as="sourcePoint" />
            <mxPoint x="1438.678756476684" y="452.5006451612904" as="targetPoint" />
          </mxGeometry>
        </mxCell>
        <mxCell id="Rx0N3biQeZJ-gyF1oq_y-19" value="" style="rounded=0;whiteSpace=wrap;html=1;fillColor=#f5f5f5;strokeColor=none;fontSize=10;strokeWidth=1;container=0;fontColor=#333333;" parent="1" vertex="1">
          <mxGeometry x="1420.3367875647668" y="465.92" width="20.725388601036272" height="7.129032258064514" as="geometry" />
        </mxCell>
        <mxCell id="Rx0N3biQeZJ-gyF1oq_y-38" value="" style="ellipse;whiteSpace=wrap;html=1;aspect=fixed;fillColor=#3C3C3C;strokeColor=none;shadow=1;gradientColor=#b3b3b3;strokeWidth=0.5;gradientDirection=north;" parent="1" vertex="1">
          <mxGeometry x="1279.8700000000001" y="390.84000000000003" width="10.25" height="10.25" as="geometry" />
        </mxCell>
        <mxCell id="Rx0N3biQeZJ-gyF1oq_y-39" value="" style="ellipse;whiteSpace=wrap;html=1;aspect=fixed;fillColor=#3C3C3C;strokeColor=none;shadow=1;gradientColor=#b3b3b3;strokeWidth=0.5;gradientDirection=north;" parent="1" vertex="1">
          <mxGeometry x="1279.8700000000001" y="424.88000000000005" width="10.25" height="10.25" as="geometry" />
        </mxCell>
        <mxCell id="Rx0N3biQeZJ-gyF1oq_y-40" value="" style="ellipse;whiteSpace=wrap;html=1;aspect=fixed;fillColor=#3C3C3C;strokeColor=none;shadow=1;gradientColor=#b3b3b3;strokeWidth=0.5;gradientDirection=north;" parent="1" vertex="1">
          <mxGeometry x="1279.8700000000001" y="459.25" width="10.25" height="10.25" as="geometry" />
        </mxCell>
        <mxCell id="Rx0N3biQeZJ-gyF1oq_y-57" value="&lt;font color=&quot;#404040&quot;&gt;&lt;span style=&quot;font-size: 10px;&quot;&gt;&lt;b&gt;PQC&lt;/b&gt;&lt;/span&gt;&lt;/font&gt;" style="text;html=1;align=center;verticalAlign=middle;whiteSpace=wrap;rounded=1;strokeColor=#666666;fillColor=default;fontColor=#333333;dashed=1;dashPattern=1 1;fontSize=12;fillStyle=dots;arcSize=50;" parent="1" vertex="1">
          <mxGeometry x="1315.38" y="336" width="140" height="20" as="geometry" />
        </mxCell>
        <mxCell id="Rx0N3biQeZJ-gyF1oq_y-59" value="&lt;font color=&quot;#404040&quot;&gt;&lt;span style=&quot;font-size: 10px;&quot;&gt;&lt;b&gt;Qubits&lt;/b&gt;&lt;/span&gt;&lt;/font&gt;" style="text;html=1;align=center;verticalAlign=middle;whiteSpace=wrap;rounded=1;strokeColor=#666666;fillColor=default;fontColor=#333333;dashed=1;dashPattern=1 1;fontSize=12;fillStyle=dots;arcSize=50;" parent="1" vertex="1">
          <mxGeometry x="1265" y="356" width="39.99" height="20" as="geometry" />
        </mxCell>
        <mxCell id="Rx0N3biQeZJ-gyF1oq_y-67" style="edgeStyle=orthogonalEdgeStyle;rounded=0;orthogonalLoop=1;jettySize=auto;html=1;entryX=0;entryY=0.5;entryDx=0;entryDy=0;endArrow=none;startFill=0;fillColor=#f5f5f5;strokeColor=#666666;strokeWidth=1;" parent="1" source="Rx0N3biQeZJ-gyF1oq_y-62" edge="1">
          <mxGeometry relative="1" as="geometry">
            <mxPoint x="1514" y="429.51" as="targetPoint" />
            <Array as="points">
              <mxPoint x="1519" y="430" />
              <mxPoint x="1519" y="430" />
            </Array>
          </mxGeometry>
        </mxCell>
        <mxCell id="Rx0N3biQeZJ-gyF1oq_y-62" value="" style="ellipse;whiteSpace=wrap;html=1;aspect=fixed;fillColor=#3C3C3C;strokeColor=none;shadow=1;gradientColor=#b3b3b3;strokeWidth=0.5;gradientDirection=north;" parent="1" vertex="1">
          <mxGeometry x="1477.0000000000002" y="424.38000000000005" width="10.25" height="10.25" as="geometry" />
        </mxCell>
        <mxCell id="kZz1Z1DEpBygP7qMkwnk-1" value="`o_1`" style="ellipse;whiteSpace=wrap;html=1;aspect=fixed;fillColor=#f5f5f5;fontColor=#333333;strokeColor=#868686;strokeWidth=1;" parent="1" vertex="1">
          <mxGeometry x="1503" y="416.01" width="27.49" height="27.49" as="geometry" />
        </mxCell>
        <mxCell id="kZz1Z1DEpBygP7qMkwnk-2" value="&lt;font style=&quot;color: rgb(60, 60, 60); font-size: 14px;&quot;&gt;`\gamma`&lt;/font&gt;" style="text;html=1;align=center;verticalAlign=middle;whiteSpace=wrap;rounded=0;" parent="1" vertex="1">
          <mxGeometry x="1557" y="461.18" width="22" height="25" as="geometry" />
        </mxCell>
        <mxCell id="xwM5LAmUM467yW5PZ2eq-12" value="" style="group" vertex="1" connectable="0" parent="1">
          <mxGeometry x="1553" y="399" width="30" height="61" as="geometry" />
        </mxCell>
        <mxCell id="Rx0N3biQeZJ-gyF1oq_y-87" style="edgeStyle=orthogonalEdgeStyle;rounded=0;orthogonalLoop=1;jettySize=auto;html=1;exitX=1;exitY=0.5;exitDx=0;exitDy=0;endArrow=none;startFill=0;fillColor=#f5f5f5;strokeColor=#666666;" parent="xwM5LAmUM467yW5PZ2eq-12" source="kZz1Z1DEpBygP7qMkwnk-1" edge="1">
          <mxGeometry relative="1" as="geometry">
            <mxPoint x="1" y="30.64705882352939" as="targetPoint" />
            <mxPoint x="-19" y="30.50999999999999" as="sourcePoint" />
          </mxGeometry>
        </mxCell>
        <mxCell id="Rx0N3biQeZJ-gyF1oq_y-86" value="" style="group" parent="xwM5LAmUM467yW5PZ2eq-12" vertex="1" connectable="0">
          <mxGeometry width="30" height="61" as="geometry" />
        </mxCell>
        <mxCell id="Rx0N3biQeZJ-gyF1oq_y-73" value="" style="group" parent="Rx0N3biQeZJ-gyF1oq_y-86" vertex="1" connectable="0">
          <mxGeometry y="0.5699999999999932" width="10" height="60.43000000000001" as="geometry" />
        </mxCell>
        <mxCell id="Rx0N3biQeZJ-gyF1oq_y-69" value="" style="endArrow=none;html=1;rounded=0;strokeWidth=2;fillColor=#f5f5f5;strokeColor=#666666;" parent="Rx0N3biQeZJ-gyF1oq_y-73" edge="1">
          <mxGeometry width="50" height="50" relative="1" as="geometry">
            <mxPoint x="1" y="60.43000000000001" as="sourcePoint" />
            <mxPoint x="1" as="targetPoint" />
          </mxGeometry>
        </mxCell>
        <mxCell id="Rx0N3biQeZJ-gyF1oq_y-71" value="" style="endArrow=none;html=1;rounded=0;strokeWidth=2;fillColor=#f5f5f5;strokeColor=#666666;" parent="Rx0N3biQeZJ-gyF1oq_y-73" edge="1">
          <mxGeometry width="50" height="50" relative="1" as="geometry">
            <mxPoint y="59.43000000000001" as="sourcePoint" />
            <mxPoint x="10" y="59.43000000000001" as="targetPoint" />
          </mxGeometry>
        </mxCell>
        <mxCell id="Rx0N3biQeZJ-gyF1oq_y-72" value="" style="endArrow=none;html=1;rounded=0;strokeWidth=2;fillColor=#f5f5f5;strokeColor=#666666;" parent="Rx0N3biQeZJ-gyF1oq_y-73" edge="1">
          <mxGeometry width="50" height="50" relative="1" as="geometry">
            <mxPoint y="0.4300000000000068" as="sourcePoint" />
            <mxPoint x="10" y="0.4300000000000068" as="targetPoint" />
          </mxGeometry>
        </mxCell>
        <mxCell id="Rx0N3biQeZJ-gyF1oq_y-75" value="" style="endArrow=none;html=1;rounded=0;strokeWidth=2;fillColor=#f5f5f5;strokeColor=#666666;" parent="Rx0N3biQeZJ-gyF1oq_y-86" edge="1">
          <mxGeometry width="50" height="50" relative="1" as="geometry">
            <mxPoint x="29" as="sourcePoint" />
            <mxPoint x="29" y="60" as="targetPoint" />
          </mxGeometry>
        </mxCell>
        <mxCell id="Rx0N3biQeZJ-gyF1oq_y-76" value="" style="endArrow=none;html=1;rounded=0;strokeWidth=2;fillColor=#f5f5f5;strokeColor=#666666;" parent="Rx0N3biQeZJ-gyF1oq_y-86" edge="1">
          <mxGeometry width="50" height="50" relative="1" as="geometry">
            <mxPoint x="30" y="1" as="sourcePoint" />
            <mxPoint x="20" y="1" as="targetPoint" />
          </mxGeometry>
        </mxCell>
        <mxCell id="Rx0N3biQeZJ-gyF1oq_y-77" value="" style="endArrow=none;html=1;rounded=0;strokeWidth=2;fillColor=#f5f5f5;strokeColor=#666666;" parent="Rx0N3biQeZJ-gyF1oq_y-86" edge="1">
          <mxGeometry width="50" height="50" relative="1" as="geometry">
            <mxPoint x="30" y="60" as="sourcePoint" />
            <mxPoint x="20" y="60" as="targetPoint" />
          </mxGeometry>
        </mxCell>
        <mxCell id="Rx0N3biQeZJ-gyF1oq_y-79" value="&lt;font style=&quot;color: rgb(60, 60, 60);&quot;&gt;`0.8`&lt;/font&gt;" style="text;html=1;align=center;verticalAlign=middle;whiteSpace=wrap;rounded=0;" parent="Rx0N3biQeZJ-gyF1oq_y-86" vertex="1">
          <mxGeometry x="4" y="3" width="22" height="25" as="geometry" />
        </mxCell>
        <mxCell id="Rx0N3biQeZJ-gyF1oq_y-85" value="&lt;font style=&quot;color: rgb(60, 60, 60);&quot;&gt;`0.2`&lt;/font&gt;" style="text;html=1;align=center;verticalAlign=middle;whiteSpace=wrap;rounded=0;" parent="Rx0N3biQeZJ-gyF1oq_y-86" vertex="1">
          <mxGeometry x="4" y="32.5" width="22" height="25" as="geometry" />
        </mxCell>
      </root>
    </mxGraphModel>
  </diagram>
</mxfile>
